<svg id="Layer_1" data-name="Layer 1" xmlns="http://www.w3.org/2000/svg" viewBox="0 0 374.5 123.75"><defs><style>.cls-1{fill:#ff0;}.cls-2{fill:#fff;}.cls-3{fill:none;stroke:#ff0;stroke-miterlimit:10;stroke-width:9px;}</style></defs><title>urentlogo</title><path class="cls-1" d="M24.79,79.46V30.2H35.37V78.42c0,13.87,9.54,21,22.2,21s22.2-7.11,22.2-21V30.2H90.35V79.46c0,16.13-11.45,29.31-32.78,29.31S24.79,95.59,24.79,79.46Z"/><path class="cls-2" d="M166.83,41.63h-5.21c-13.52,0-23.24,6.24-23.24,24.28v42.84H128V32.26h10v13c4.34-10.23,13.88-14.4,23.07-14.4,1.74,0,3.65.18,5.73.35Z"/><path class="cls-2" d="M179.48,72.59c1.39,15.78,12,27.75,27.93,27.75,10.4,0,19.08-4.86,23.76-13.18h12.31c-6.41,13.87-20.29,22.54-36.07,22.54-22,0-38.85-16.82-38.85-40.24s16.82-40.41,38.67-40.41c20,0,38.51,14.05,38.51,43.19v.35Zm.35-8.68h54.11C232.73,50,222.32,38.42,207.23,38.42,192,38.42,181.74,49.34,179.83,63.91Z"/><path class="cls-2" d="M312,58.45c0-12.31-8-18.9-18.9-18.9-9.19,0-18.21,5-25.5,13.52v55.68H257V32.26h10.41V43.19a34.69,34.69,0,0,1,27.4-13c17.87,0,27.75,10.93,27.75,27.75v50.82H312Z"/><path class="cls-2" d="M355.59,0V32.26H374.5v8.85H355.59V93c0,7.11,5,7.45,10.93,7.45a53.59,53.59,0,0,0,8-.52v8.85a107.67,107.67,0,0,1-11.79.69c-8,0-17.7-2.08-17.7-16.3v-52H331.83V32.26H345V0Z"/><rect class="cls-3" x="4.5" y="13.05" width="106.14" height="106.14"/></svg>