<svg id="Layer_1" data-name="Layer 1" xmlns="http://www.w3.org/2000/svg" viewBox="0 0 355 109"><defs><style>.cls-1{fill:none;stroke:#ff0;stroke-miterlimit:10;stroke-width:9px;}.cls-2{fill:#ff0;}</style></defs><title>urent_altlogo</title><rect class="cls-1" x="5.02" y="7.41" width="96.65" height="96.65"/><path class="cls-2" d="M21.66,25.91H31V59.73q0,12.39,1.33,17.05A19,19,0,0,0,40,87.3a23.18,23.18,0,0,0,13.43,3.86A22.75,22.75,0,0,0,66.62,87.4a19.3,19.3,0,0,0,7.5-9.89q1.39-4.2,1.4-17.78V25.91H85V61.46q0,15-3.49,22.57A26.71,26.71,0,0,1,71,95.92q-7,4.29-17.61,4.29T35.74,95.92a26.46,26.46,0,0,1-10.59-12q-3.49-7.68-3.49-23.13Z"/><path d="M118.69,26.84h9.52V37.42a33.39,33.39,0,0,1,9-9.35,17.7,17.7,0,0,1,9.86-3.1,16.93,16.93,0,0,1,8.25,2.47l-4.86,7.85A13,13,0,0,0,145.53,34a13.48,13.48,0,0,0-9,3.83q-4.33,3.82-6.6,11.88-1.73,6.19-1.73,25v24.5h-9.52Z"/><path d="M220.14,75.24,228,79.37a42.56,42.56,0,0,1-8.93,12.25,35.15,35.15,0,0,1-11.39,7.09,39.76,39.76,0,0,1-14.33,2.44q-17.73,0-27.73-11.62a39.22,39.22,0,0,1-10-26.27,38.74,38.74,0,0,1,8.46-24.57Q174.8,25,192.8,25,211.34,25,222.39,39q7.88,9.93,8,24.77H165.2q.27,12.63,8.07,20.7a25.73,25.73,0,0,0,19.27,8.07,31,31,0,0,0,10.76-1.93,28.24,28.24,0,0,0,8.9-5.1Q215.88,82.34,220.14,75.24Zm0-19.5a30.89,30.89,0,0,0-5.44-11.92,25.78,25.78,0,0,0-9.43-7.2,29,29,0,0,0-12.33-2.72,26.58,26.58,0,0,0-18.34,6.85q-5.59,5-8.46,15Z"/><path d="M243.68,26.84H253v13a38.93,38.93,0,0,1,12.39-11.15A30.44,30.44,0,0,1,280.17,25a25.69,25.69,0,0,1,14.41,4.13,24.57,24.57,0,0,1,9.29,11.12q3,7,3,21.77V99.28h-9.32V64.72q0-12.51-1-16.71-1.62-7.18-6.22-10.82t-12-3.63a23,23,0,0,0-15.15,5.6A26.12,26.12,0,0,0,254.33,53Q253,58.4,253,72.71V99.28h-9.32Z"/><path d="M330.87-.06h9.33v26.9H355v8.05H340.2V99.28h-9.33V34.89H318.16v-8h12.71Z"/></svg>