<svg id="Layer_1" data-name="Layer 1" xmlns="http://www.w3.org/2000/svg" viewBox="0 0 354.46 109.57"><defs><style>.cls-1{fill:#ff0;}.cls-2{fill:#fff;}</style></defs><title>urent_logo</title><path class="cls-1" d="M105.65,108.63H0V3H105.65ZM9,99.63H96.65V12H9Z"/><path class="cls-1" d="M21.13,26h9.33V59.79q0,12.39,1.33,17.05a19,19,0,0,0,7.63,10.52,23.24,23.24,0,0,0,13.44,3.86A22.7,22.7,0,0,0,66.1,87.46a19.26,19.26,0,0,0,7.5-9.89Q75,73.37,75,59.79V26h9.52V61.52q0,15-3.49,22.58A26.69,26.69,0,0,1,70.51,96q-7,4.29-17.62,4.3T35.22,96A26.48,26.48,0,0,1,24.63,84q-3.49-7.69-3.5-23.14Z"/><path class="cls-2" d="M118.17,26.9h9.52V37.49a33.58,33.58,0,0,1,9-9.36A17.76,17.76,0,0,1,146.54,25a17,17,0,0,1,8.25,2.46l-4.86,7.86A12.83,12.83,0,0,0,145,34.09q-4.65,0-9,3.83T129.42,49.8q-1.72,6.2-1.73,25v24.5h-9.52Z"/><path class="cls-2" d="M219.62,75.31l7.85,4.13a42.88,42.88,0,0,1-8.93,12.25,35.54,35.54,0,0,1-11.4,7.09,39.71,39.71,0,0,1-14.32,2.43q-17.73,0-27.73-11.62a39.22,39.22,0,0,1-10-26.27,38.74,38.74,0,0,1,8.46-24.57Q174.29,25,192.28,25q18.53,0,29.59,14,7.86,9.93,8,24.77H164.68q.27,12.63,8.07,20.7A25.73,25.73,0,0,0,192,92.62a31,31,0,0,0,10.76-1.92,28.45,28.45,0,0,0,8.9-5.11Q215.36,82.41,219.62,75.31Zm0-19.51a31,31,0,0,0-5.44-11.92,25.76,25.76,0,0,0-9.43-7.19A28.88,28.88,0,0,0,192.42,34a26.57,26.57,0,0,0-18.34,6.86q-5.6,5-8.46,15Z"/><path class="cls-2" d="M243.16,26.9h9.32v13a39,39,0,0,1,12.38-11.15A30.49,30.49,0,0,1,279.64,25a25.69,25.69,0,0,1,14.42,4.12,24.69,24.69,0,0,1,9.29,11.12q3,7,3,21.78V99.34H297V64.79q0-12.53-1-16.72-1.62-7.18-6.22-10.82t-12-3.62a23,23,0,0,0-15.15,5.59,26.19,26.19,0,0,0-8.82,13.85q-1.34,5.38-1.33,19.71V99.34h-9.32Z"/><path class="cls-2" d="M330.35,0h9.32V26.9h14.79V35H339.67V99.34h-9.32V35H317.64V26.9h12.71Z"/></svg>